<svg width="159" height="27" viewBox="0 0 159 27" fill="none" xmlns="http://www.w3.org/2000/svg">
<path d="M105.38 25.3785C104.18 25.3785 103.208 24.4167 103.208 23.2287C103.208 17.9631 98.8762 13.6772 93.5543 13.6772C88.2327 13.6772 83.9011 17.9631 83.9011 23.2287C83.9011 24.4167 82.9292 25.3785 81.7287 25.3785C80.5279 25.3785 79.556 24.4167 79.556 23.2287C79.556 15.5916 85.8358 9.37769 93.5543 9.37769C101.273 9.37769 107.553 15.5916 107.553 23.2287C107.553 24.4167 106.581 25.3785 105.38 25.3785Z" fill="white"/>
<path d="M138.793 25.3785C138.231 25.3785 137.668 25.1682 137.238 24.7496L125.268 13.0485C124.409 12.209 124.409 10.8468 125.268 10.0073C126.127 9.16781 127.518 9.16781 128.379 10.0073L138.793 20.1877L149.207 10.0073C150.066 9.16781 151.457 9.16781 152.318 10.0073C153.177 10.8468 153.177 12.209 152.318 13.0485L140.349 24.7496C139.918 25.1682 139.356 25.3785 138.793 25.3785Z" fill="white"/>
<path d="M116.259 25.3785C115.033 25.3785 114.04 24.417 114.04 23.2293V11.1865C114.04 9.99877 115.033 9.03723 116.259 9.03723C117.486 9.03723 118.478 9.99877 118.478 11.1865V23.2293C118.478 24.417 117.486 25.3785 116.259 25.3785Z" fill="white"/>
<path d="M116.432 5.84945C118.047 5.84945 119.357 4.54001 119.357 2.92472C119.357 1.30944 118.047 0 116.432 0C114.817 0 113.507 1.30944 113.507 2.92472C113.507 4.54001 114.817 5.84945 116.432 5.84945Z" fill="white"/>
<path d="M155.985 25.3476C157.601 25.3476 158.91 24.0382 158.91 22.4229C158.91 20.8076 157.601 19.4982 155.985 19.4982C154.37 19.4982 153.061 20.8076 153.061 22.4229C153.061 24.0382 154.37 25.3476 155.985 25.3476Z" fill="white"/>
<path d="M65.8414 26.0607C64.6768 26.0607 63.5119 25.8342 62.4 25.3816C60.1348 24.4602 58.3624 22.707 57.4093 20.4457C56.4564 18.1845 56.438 15.69 57.3588 13.4149C58.275 11.1421 60.022 9.36362 62.2735 8.40738C64.5247 7.45116 67.0132 7.43269 69.2806 8.35657C71.5457 9.27816 73.3181 11.0312 74.2713 13.2925C74.7178 14.3503 74.2228 15.5699 73.1707 16.0156L62.4415 20.5681C62.8788 20.9722 63.3899 21.2981 63.9562 21.529C65.1968 22.0349 66.5597 22.0232 67.7912 21.5012C68.9307 21.0185 69.8491 20.1339 70.3739 19.0114C70.8597 17.972 72.0936 17.5262 73.1295 18.0136C74.1654 18.5009 74.6097 19.7389 74.1239 20.7783C73.1641 22.8293 71.4858 24.4462 69.4048 25.3309C68.2586 25.8181 67.05 26.0607 65.8414 26.0607ZM63.8871 12.2369C62.6557 12.7612 61.698 13.7336 61.1939 14.9786C60.9635 15.5468 60.8415 16.1427 60.8253 16.7386L69.2368 13.1701C68.7995 12.7659 68.2862 12.4494 67.7221 12.2092C67.0361 11.9182 65.5559 11.5255 63.8871 12.2369Z" fill="white"/>
<path d="M50.0406 9.34674C48.8262 9.34674 47.8432 10.3084 47.8432 11.4965C47.8432 16.7622 43.4622 21.048 38.0799 21.048C32.6973 21.048 28.3163 16.7622 28.3163 11.4965C28.3163 10.3084 27.3334 9.34674 26.1189 9.34674C24.9047 9.34674 23.9215 10.3084 23.9215 11.4965C23.9215 16.7622 19.5407 21.048 14.1582 21.048C8.77573 21.048 4.3948 16.7622 4.3948 11.4965C4.3948 10.3084 3.41176 9.34674 2.19739 9.34674C0.983041 9.34674 0 10.3084 0 11.4965C0 19.1337 6.35164 25.3476 14.1582 25.3476C19.1868 25.3476 23.607 22.768 26.1189 18.8938C28.6311 22.768 33.0536 25.3476 38.0799 25.3476C45.8864 25.3476 52.2381 19.1337 52.2381 11.4965C52.2381 10.3084 51.2548 9.34674 50.0406 9.34674Z" fill="white"/>
</svg>
